<svg xmlns="http://www.w3.org/2000/svg" viewBox="0 0 1200 1420" font-family="'Inter', 'Segoe UI', system-ui, -apple-system, sans-serif" font-size="12">
  <defs>
    <linearGradient id="obsTitleGrad" x1="0" y1="0" x2="0" y2="1">
      <stop offset="0%" stop-color="#262630"/>
      <stop offset="100%" stop-color="#1e1e28"/>
    </linearGradient>
    <linearGradient id="obsRibbonGrad" x1="0" y1="0" x2="1" y2="0">
      <stop offset="0%" stop-color="#16161c"/>
      <stop offset="100%" stop-color="#1a1a24"/>
    </linearGradient>
    <linearGradient id="obsEditorGrad" x1="0" y1="0" x2="0" y2="1">
      <stop offset="0%" stop-color="#222230"/>
      <stop offset="100%" stop-color="#1e1e2a"/>
    </linearGradient>
    <linearGradient id="obsAccentGrad" x1="0" y1="0" x2="1" y2="0">
      <stop offset="0%" stop-color="#7f6df2"/>
      <stop offset="100%" stop-color="#8b5cf6"/>
    </linearGradient>
  </defs>

  <!-- ================================================================ -->
  <!--                    DETAILED MOCKUP                                -->
  <!-- ================================================================ -->

  <!-- Background -->
  <rect width="1200" height="780" rx="12" fill="#16161c"/>

  <!-- ==================== TAB BAR / WINDOW CHROME (Windows layout) ==================== -->
  <!-- On Windows: no separate title bar — tab bar IS the top row with window controls -->
  <rect x="0" y="0" width="1200" height="32" rx="12" fill="url(#obsTitleGrad)"/>
  <rect x="0" y="12" width="1200" height="20" fill="url(#obsTitleGrad)"/>

  <!-- Left sidebar toggle (first icon, top-left, part of ribbon header) -->
  <rect x="0" y="0" width="44" height="32" rx="12" fill="#16161c"/>
  <rect x="0" y="12" width="44" height="20" fill="#16161c"/>
  <rect x="6" y="8" width="14" height="2" rx="1" fill="#a9b1bd"/>
  <rect x="6" y="13" width="14" height="2" rx="1" fill="#a9b1bd"/>
  <rect x="6" y="18" width="8" height="2" rx="1" fill="#a9b1bd"/>
  <rect x="22" y="8" width="14" height="12" rx="2" fill="none" stroke="#a9b1bd" stroke-width="1.5"/>

  <!-- Tab bar (spans from ribbon to window controls) -->
  <!-- Active tab -->
  <rect x="44" y="0" width="160" height="32" rx="0" fill="#222230"/>
  <rect x="44" y="0" width="160" height="4" rx="0" fill="#222230"/>
  <text x="60" y="20" fill="#dcddde" font-size="11" font-weight="500">Research Notes</text>
  <text x="190" y="20" fill="#5c5c72" font-size="10">x</text>
  <!-- Inactive tabs -->
  <rect x="204" y="0" width="130" height="32" fill="url(#obsTitleGrad)"/>
  <text x="220" y="20" fill="#5c5c72" font-size="11">Meeting Notes</text>
  <text x="320" y="20" fill="#3a3a4a" font-size="10">x</text>

  <rect x="334" y="0" width="100" height="32" fill="url(#obsTitleGrad)"/>
  <text x="350" y="20" fill="#5c5c72" font-size="11">Ideas</text>
  <text x="420" y="20" fill="#3a3a4a" font-size="10">x</text>
  <!-- New tab button -->
  <text x="454" y="20" fill="#5c5c72" font-size="14">+</text>

  <!-- Tab overflow dropdown (˅) -->
  <text x="1098" y="20" fill="#5c5c72" font-size="12">&#711;</text>
  <!-- Window controls (Windows style: ─ □ ✕) -->
  <g fill="#a9b1bd" font-size="11">
    <rect x="1114" y="0" width="28" height="32" fill="transparent"/>
    <text x="1128" y="20" text-anchor="middle">&#8211;</text>
    <rect x="1142" y="0" width="28" height="32" fill="transparent"/>
    <text x="1156" y="20" text-anchor="middle">&#9633;</text>
    <rect x="1170" y="0" width="30" height="32" fill="transparent"/>
    <text x="1185" y="20" text-anchor="middle" fill="#ff5f57">&#10005;</text>
  </g>

  <!-- ==================== RIBBON ==================== -->
  <rect x="0" y="32" width="44" height="716" fill="url(#obsRibbonGrad)"/>
  <!-- Ribbon icons (core plugins — shown via ribbon) -->
  <g fill="#5c5c72" font-size="16" text-anchor="middle">
    <!-- File Explorer (active) -->
    <rect x="0" y="36" width="3" height="28" rx="1" fill="#7f6df2"/>
    <text x="22" y="56" fill="#7f6df2" font-size="17">&#128193;</text>
    <!-- Graph / connections -->
    <text x="22" y="88" font-size="15">&#128376;</text>
    <!-- Grid / canvas -->
    <text x="22" y="120" font-size="15">&#11036;</text>
    <!-- Calendar / daily note -->
    <text x="22" y="152" font-size="15">&#128197;</text>
    <!-- Notes / clipboard -->
    <text x="22" y="184" font-size="15">&#128203;</text>
    <!-- Terminal / command -->
    <text x="22" y="216" font-size="13">&gt;_</text>
    <!-- List / outline -->
    <text x="22" y="248" font-size="15">&#9776;</text>
    <!-- Separator -->
    <line x1="12" y1="268" x2="32" y2="268" stroke="#2e2e3e" stroke-width="1"/>
    <!-- Vault name (bottom of ribbon) -->
    <text x="22" y="680" fill="#a9b1bd" font-size="7" text-anchor="middle">lap-</text>
    <text x="22" y="690" fill="#a9b1bd" font-size="7" text-anchor="middle">working</text>
    <!-- Help (built-in, bottom) -->
    <text x="22" y="710" font-size="13">?</text>
    <!-- Settings (built-in, bottom) -->
    <text x="22" y="732" font-size="15">&#9881;</text>
  </g>
  <!-- Ribbon label -->
  <g transform="translate(22, 480) rotate(-90)">
    <text text-anchor="middle" fill="#3a3a4a" font-size="10" letter-spacing="2">RIBBON</text>
  </g>

  <!-- ==================== NAVIGATION BAR ==================== -->
  <!-- Back/forward arrows + breadcrumb + right sidebar toggle, below tab bar -->
  <rect x="44" y="32" width="1156" height="24" fill="#1e1e2a"/>
  <!-- Back / forward arrows -->
  <text x="56" y="48" fill="#5c5c72" font-size="13">&#8592;</text>
  <text x="78" y="48" fill="#5c5c72" font-size="13">&#8594;</text>
  <!-- Breadcrumb path (center of nav bar) -->
  <text x="550" y="48" fill="#5c5c72" font-size="10">Projects</text>
  <text x="594" y="48" fill="#3a3a4a" font-size="10">/</text>
  <text x="604" y="48" fill="#a9b1bd" font-size="10">Research Notes</text>
  <!-- Right side: reading view toggle + more options -->
  <rect x="1140" y="36" width="18" height="16" rx="2" fill="transparent"/>
  <text x="1149" y="48" text-anchor="middle" fill="#5c5c72" font-size="11">&#128214;</text>
  <text x="1178" y="48" text-anchor="middle" fill="#5c5c72" font-size="12">&#8942;</text>

  <!-- ==================== LEFT SIDEBAR ==================== -->
  <rect x="44" y="56" width="220" height="692" fill="#1a1a24"/>

  <!-- File explorer action bar (top of sidebar) -->
  <rect x="44" y="56" width="220" height="22" fill="#1a1a24"/>
  <g fill="#5c5c72" font-size="11" text-anchor="middle">
    <text x="60" y="71">&#9998;</text>
    <text x="82" y="71">&#128203;</text>
    <text x="104" y="71">&#8644;</text>
    <text x="126" y="71">&#8645;</text>
    <text x="248" y="71">&#10005;</text>
  </g>

  <!-- File tree -->
  <g fill="#dcddde" font-size="11">
    <text x="60" y="78" fill="#febc2e">&#9660;</text>
    <text x="74" y="78" fill="#7f9ef2">Daily Notes</text>
    <text x="80" y="98" fill="#a9b1bd">2026-04-03.md</text>
    <text x="80" y="118" fill="#a9b1bd">2026-04-04.md</text>
    <text x="80" y="138" fill="#a9b1bd">2026-04-05.md</text>

    <text x="60" y="166" fill="#febc2e">&#9660;</text>
    <text x="74" y="166" fill="#7f9ef2">Projects</text>
    <!-- Active file highlight -->
    <rect x="46" y="172" width="216" height="20" rx="3" fill="#2e2e3e" opacity="0.7"/>
    <text x="80" y="186" fill="#7f6df2">Research Notes.md</text>
    <text x="80" y="206" fill="#a9b1bd">Meeting Notes.md</text>
    <text x="80" y="226" fill="#a9b1bd">Ideas.md</text>

    <text x="60" y="254" fill="#febc2e">&#9654;</text>
    <text x="74" y="254" fill="#7f9ef2">Reference</text>

    <text x="60" y="278" fill="#febc2e">&#9654;</text>
    <text x="74" y="278" fill="#7f9ef2">Archive</text>

    <text x="60" y="302" fill="#febc2e">&#9654;</text>
    <text x="74" y="302" fill="#7f9ef2">Templates</text>

    <text x="60" y="326" fill="#febc2e">&#9654;</text>
    <text x="74" y="326" fill="#7f9ef2">Attachments</text>
  </g>

  <!-- Left sidebar alternate views hint -->
  <rect x="46" y="680" width="216" height="44" rx="4" fill="#1a1a24" stroke="#2e2e3e" stroke-width="0.5"/>
  <text x="154" y="696" text-anchor="middle" fill="#5c5c72" font-size="8">Also available in left sidebar:</text>
  <text x="154" y="710" text-anchor="middle" fill="#5c5c72" font-size="8">Search, Bookmarks, Tags View</text>
  <text x="154" y="720" text-anchor="middle" fill="#3a3a4a" font-size="7">(switched via ribbon icons)</text>

  <!-- Left sidebar dimension -->
  <line x1="44" y1="760" x2="264" y2="760" stroke="#3a3a4a" stroke-width="1" stroke-dasharray="3,3"/>
  <text x="154" y="773" text-anchor="middle" fill="#3a3a4a" font-size="9">260px default (resizable)</text>

  <!-- Resize handle -->
  <rect x="262" y="56" width="4" height="692" fill="#2e2e3e" opacity="0.5"/>

  <!-- ==================== EDITOR AREA ==================== -->
  <rect x="266" y="56" width="630" height="692" rx="0" fill="url(#obsEditorGrad)"/>

  <!-- Editor content (Live Preview mode) -->
  <g font-size="13" fill="#dcddde" font-family="'Inter', system-ui, sans-serif">
    <!-- Properties / Frontmatter (rendered) -->
    <rect x="290" y="104" width="582" height="64" rx="6" fill="#1a1a24" stroke="#2e2e3e" stroke-width="0.5"/>
    <g font-size="10">
      <text x="306" y="120" fill="#5c5c72">tags</text>
      <rect x="346" y="110" width="56" height="16" rx="8" fill="#7f6df2" opacity="0.15"/>
      <text x="374" y="122" text-anchor="middle" fill="#7f6df2" font-size="9">#research</text>
      <rect x="408" y="110" width="44" height="16" rx="8" fill="#7f6df2" opacity="0.15"/>
      <text x="430" y="122" text-anchor="middle" fill="#7f6df2" font-size="9">#rust</text>
      <text x="306" y="142" fill="#5c5c72">created</text>
      <text x="374" y="142" fill="#a9b1bd">2026-04-03</text>
      <text x="306" y="160" fill="#5c5c72">status</text>
      <text x="374" y="160" fill="#28c840">in-progress</text>
    </g>

    <!-- Heading (rendered in Live Preview) -->
    <text x="290" y="200" fill="#dcddde" font-size="22" font-weight="700">Research Notes</text>

    <!-- Body text -->
    <text x="290" y="234" fill="#a9b1bd" font-size="13">Obsidian is a local-first, privacy-focused knowledge</text>
    <text x="290" y="254" fill="#a9b1bd" font-size="13">management application built on plain Markdown files.</text>

    <!-- Blank line -->

    <!-- H2 rendered -->
    <text x="290" y="290" fill="#dcddde" font-size="17" font-weight="600">Linking &amp; Knowledge Graph</text>

    <!-- Wikilink rendered -->
    <text x="290" y="320" fill="#a9b1bd" font-size="13">The cornerstone of Obsidian is </text>
    <text x="540" y="320" fill="#7f6df2" font-size="13" text-decoration="underline">internal linking</text>
    <text x="650" y="320" fill="#a9b1bd" font-size="13">.</text>
    <text x="290" y="340" fill="#a9b1bd" font-size="13">Using double-bracket syntax you can link to any</text>
    <text x="290" y="360" fill="#a9b1bd" font-size="13">note, heading, or block in your vault.</text>

    <!-- Callout box -->
    <rect x="290" y="384" width="582" height="68" rx="6" fill="#28c840" opacity="0.06" stroke="#28c840" stroke-width="0.5" stroke-opacity="0.3"/>
    <rect x="290" y="384" width="4" height="68" rx="2" fill="#28c840" opacity="0.6"/>
    <text x="310" y="404" fill="#28c840" font-size="11" font-weight="600">&#9989; Tip</text>
    <text x="310" y="422" fill="#a9b1bd" font-size="11">Use [[Note#Heading]] to link to specific sections.</text>
    <text x="310" y="440" fill="#a9b1bd" font-size="11">Prefix with ! to embed content inline.</text>

    <!-- More body text -->
    <text x="290" y="478" fill="#dcddde" font-size="17" font-weight="600">Graph View</text>
    <text x="290" y="508" fill="#a9b1bd" font-size="13">A live, interactive force-directed visualization of</text>
    <text x="290" y="528" fill="#a9b1bd" font-size="13">your entire vault as a network of connected notes.</text>

    <!-- Tag inline -->
    <text x="290" y="562" fill="#a9b1bd" font-size="13">Related topics: </text>
    <rect x="404" y="549" width="68" height="18" rx="9" fill="#7f6df2" opacity="0.12"/>
    <text x="438" y="563" text-anchor="middle" fill="#7f6df2" font-size="11">#knowledge</text>
    <rect x="480" y="549" width="52" height="18" rx="9" fill="#7f6df2" opacity="0.12"/>
    <text x="506" y="563" text-anchor="middle" fill="#7f6df2" font-size="11">#graph</text>

    <!-- Embedded image placeholder -->
    <rect x="290" y="582" width="260" height="100" rx="6" fill="#1a1a24" stroke="#2e2e3e" stroke-width="0.5"/>
    <text x="420" y="638" text-anchor="middle" fill="#3a3a4a" font-size="11">graph-view.png</text>
    <text x="420" y="654" text-anchor="middle" fill="#3a3a4a" font-size="9">![[graph-view.png]]</text>

    <!-- Task list -->
    <text x="290" y="706" fill="#dcddde" font-size="17" font-weight="600">Tasks</text>
    <rect x="290" y="716" width="14" height="14" rx="3" fill="none" stroke="#7f6df2" stroke-width="1.5"/>
    <text x="312" y="728" fill="#a9b1bd" font-size="12">Set up vault structure</text>
    <rect x="290" y="736" width="14" height="14" rx="3" fill="#7f6df2"/>
    <text x="299" y="748" fill="#16161c" font-size="10" font-weight="bold">&#10003;</text>
    <text x="312" y="748" fill="#5c5c72" font-size="12" text-decoration="line-through">Install community plugins</text>
  </g>

  <!-- Cursor -->
  <rect x="656" y="310" width="2" height="16" fill="#7f6df2" opacity="0.8">
    <animate attributeName="opacity" values="0.8;0;0.8" dur="1.2s" repeatCount="indefinite"/>
  </rect>

  <!-- ==================== RIGHT SIDEBAR ==================== -->
  <rect x="898" y="56" width="302" height="692" fill="#1a1a24"/>
  <rect x="896" y="56" width="4" height="692" fill="#2e2e3e" opacity="0.5"/>

  <!-- Backlinks panel -->
  <rect x="898" y="56" width="302" height="28" fill="#222230"/>
  <text x="912" y="74" fill="#dcddde" font-size="12" font-weight="600">&#9660; Backlinks</text>
  <text x="1130" y="74" fill="#5c5c72" font-size="10">(4)</text>
  <g font-size="10">
    <text x="912" y="96" fill="#5c5c72">Linked mentions (2)</text>
    <text x="920" y="114" fill="#7f9ef2">Meeting Notes</text>
    <text x="928" y="130" fill="#4a4a5e">...discussed the </text>
    <text x="1024" y="130" fill="#7f6df2">[[Research Notes]]</text>
    <text x="920" y="150" fill="#7f9ef2">Project Plan</text>
    <text x="928" y="166" fill="#4a4a5e">...see </text>
    <text x="958" y="166" fill="#7f6df2">[[Research Notes]]</text>
    <text x="912" y="190" fill="#5c5c72">Unlinked mentions (2)</text>
    <text x="920" y="208" fill="#7f9ef2">Daily 2026-04-04</text>
    <text x="928" y="224" fill="#4a4a5e">...reviewed research notes...</text>
    <rect x="1100" y="214" width="36" height="16" rx="3" fill="#2e2e3e"/>
    <text x="1118" y="225" text-anchor="middle" fill="#7f6df2" font-size="9">Link</text>
  </g>

  <!-- Outgoing Links panel -->
  <rect x="898" y="242" width="302" height="28" fill="#222230"/>
  <text x="912" y="260" fill="#dcddde" font-size="12" font-weight="600">&#9660; Outgoing Links</text>
  <text x="1130" y="260" fill="#5c5c72" font-size="10">(3)</text>
  <g font-size="10">
    <text x="920" y="286" fill="#7f9ef2">internal linking</text>
    <text x="920" y="304" fill="#7f9ef2">Graph View Docs</text>
    <text x="920" y="322" fill="#7f9ef2">Rust Language</text>
  </g>

  <!-- File Properties panel (Properties View core plugin - view 1 of 2) -->
  <rect x="898" y="340" width="302" height="28" fill="#222230"/>
  <text x="912" y="358" fill="#dcddde" font-size="12" font-weight="600">&#9660; File properties</text>
  <g font-size="10">
    <text x="912" y="382" fill="#5c5c72">tags</text>
    <text x="976" y="382" fill="#7f6df2">#research, #rust</text>
    <text x="912" y="400" fill="#5c5c72">created</text>
    <text x="976" y="400" fill="#a9b1bd">2026-04-03</text>
    <text x="912" y="418" fill="#5c5c72">status</text>
    <text x="976" y="418" fill="#28c840">in-progress</text>
  </g>

  <!-- All Properties panel (Properties View core plugin - view 2 of 2) -->
  <rect x="898" y="438" width="302" height="28" fill="#222230"/>
  <text x="912" y="456" fill="#dcddde" font-size="12" font-weight="600">&#9660; All properties</text>
  <g font-size="10">
    <text x="920" y="480" fill="#a9b1bd">tags</text>
    <text x="990" y="480" fill="#5c5c72">text (42 notes)</text>
    <text x="920" y="498" fill="#a9b1bd">created</text>
    <text x="990" y="498" fill="#5c5c72">date (38 notes)</text>
    <text x="920" y="516" fill="#a9b1bd">status</text>
    <text x="990" y="516" fill="#5c5c72">text (15 notes)</text>
    <text x="920" y="534" fill="#a9b1bd">aliases</text>
    <text x="990" y="534" fill="#5c5c72">list (8 notes)</text>
  </g>

  <!-- Outline panel -->
  <rect x="898" y="554" width="302" height="28" fill="#222230"/>
  <text x="912" y="572" fill="#dcddde" font-size="12" font-weight="600">&#9660; Outline</text>
  <g font-size="10">
    <text x="916" y="596" fill="#dcddde" font-weight="600">H1 Research Notes</text>
    <!-- Active heading -->
    <rect x="900" y="602" width="3" height="14" rx="1" fill="#7f6df2"/>
    <text x="932" y="614" fill="#7f6df2">H2 Linking &amp; Knowledge Graph</text>
    <text x="932" y="632" fill="#a9b1bd">H2 Graph View</text>
    <text x="932" y="650" fill="#a9b1bd">H2 Tasks</text>
  </g>

  <!-- Right sidebar dimension -->
  <line x1="898" y1="760" x2="1200" y2="760" stroke="#3a3a4a" stroke-width="1" stroke-dasharray="3,3"/>
  <text x="1049" y="773" text-anchor="middle" fill="#3a3a4a" font-size="9">280px default (resizable)</text>

  <!-- ==================== STATUS BAR ==================== -->
  <rect x="0" y="748" width="1200" height="28" rx="0" fill="#1a1a24"/>
  <rect x="0" y="768" width="1200" height="12" rx="0" fill="#1a1a24"/>
  <rect x="0" y="768" width="1200" height="12" rx="12" fill="#1a1a24"/>
  <!-- Status bar content: matches actual Obsidian layout (right-aligned) -->
  <g font-size="10">
    <!-- Left side: vault name -->
    <text x="56" y="766" fill="#a9b1bd">lap-working</text>
    <!-- Right side: backlinks, properties, edit mode, word count, char count -->
    <text x="980" y="766" fill="#5c5c72" text-anchor="end">0 backlinks</text>
    <text x="1000" y="766" fill="#5c5c72">7 properties</text>
    <text x="1086" y="766" fill="#5c5c72">&#9998;</text>
    <text x="1108" y="766" fill="#a9b1bd">2,348 words</text>
    <text x="1186" y="766" fill="#a9b1bd" text-anchor="end">15,953 characters</text>
  </g>

  <!-- ==================== ANNOTATIONS ==================== -->
  <!-- Ribbon width -->
  <line x1="0" y1="34" x2="44" y2="34" stroke="#3a3a4a" stroke-width="0.5" stroke-dasharray="2,2"/>
  <text x="22" y="32" text-anchor="middle" fill="#3a3a4a" font-size="8">44px</text>

  <!-- Tech stack badges -->
  <g transform="translate(50, 726)">
    <rect width="58" height="16" rx="3" fill="#7f6df2" opacity="0.12"/>
    <text x="29" y="12" text-anchor="middle" fill="#7f6df2" font-size="8" font-weight="600">Electron</text>
  </g>
  <g transform="translate(116, 726)">
    <rect width="68" height="16" rx="3" fill="#febc2e" opacity="0.12"/>
    <text x="34" y="12" text-anchor="middle" fill="#febc2e" font-size="8" font-weight="600">CodeMirror 6</text>
  </g>
  <g transform="translate(192, 726)">
    <rect width="48" height="16" rx="3" fill="#ff5f57" opacity="0.12"/>
    <text x="24" y="12" text-anchor="middle" fill="#ff5f57" font-size="8" font-weight="600">Markdown</text>
  </g>

  <!-- Window border -->
  <rect x="0" y="0" width="1200" height="780" rx="12" fill="none" stroke="#2e2e3e" stroke-width="1.5"/>


  <!-- ================================================================ -->
  <!--                    WIREFRAME LAYOUT DIAGRAM                      -->
  <!-- ================================================================ -->
  <g transform="translate(0, 840)">
    <!-- Section title -->
    <text x="600" y="-20" text-anchor="middle" fill="#dcddde" font-size="18" font-weight="700" letter-spacing="1">Layout Wireframe</text>
    <text x="600" y="0" text-anchor="middle" fill="#5c5c72" font-size="11">Regions and their roles — no content</text>

    <!-- Outer window frame -->
    <rect x="40" y="20" width="1120" height="490" rx="10" fill="#16161c" stroke="#5c5c72" stroke-width="2"/>

    <!-- TAB BAR / WINDOW CHROME (Windows: no separate title bar) -->
    <rect x="40" y="20" width="1120" height="30" rx="10" fill="#222230" stroke="#5c5c72" stroke-width="1"/>
    <rect x="40" y="40" width="1120" height="10" fill="#222230"/>
    <text x="400" y="40" text-anchor="middle" fill="#7f6df2" font-size="11" font-weight="600">TAB BAR / WINDOW CHROME</text>
    <text x="750" y="40" text-anchor="start" fill="#5c5c72" font-size="7">Tabs + window controls (no separate title bar on Windows)</text>

    <!-- NAVIGATION BAR -->
    <rect x="84" y="50" width="1076" height="20" fill="#1e1e2a" stroke="#5c5c72" stroke-width="0.5"/>
    <text x="600" y="64" text-anchor="middle" fill="#5c5c72" font-size="7">NAV BAR — back/forward arrows, breadcrumb, right sidebar toggle, more options</text>

    <!-- RIBBON -->
    <rect x="40" y="20" width="44" height="462" fill="#1a1a24" stroke="#5c5c72" stroke-width="1"/>
    <g transform="translate(62, 260) rotate(-90)">
      <text text-anchor="middle" fill="#7f6df2" font-size="11" font-weight="600">RIBBON</text>
    </g>
    <text x="62" y="370" text-anchor="middle" fill="#5c5c72" font-size="7">44px</text>
    <text x="62" y="382" text-anchor="middle" fill="#5c5c72" font-size="7">fixed</text>
    <text x="62" y="396" text-anchor="middle" fill="#3a3a4a" font-size="6">sidebar toggle</text>
    <text x="62" y="406" text-anchor="middle" fill="#3a3a4a" font-size="6">at top</text>

    <!-- LEFT SIDEBAR -->
    <rect x="84" y="70" width="200" height="412" fill="#1a1a24" stroke="#5c5c72" stroke-width="1" stroke-dasharray="6,3"/>
    <text x="184" y="200" text-anchor="middle" fill="#7f6df2" font-size="14" font-weight="600">LEFT</text>
    <text x="184" y="218" text-anchor="middle" fill="#7f6df2" font-size="14" font-weight="600">SIDEBAR</text>
    <text x="184" y="248" text-anchor="middle" fill="#5c5c72" font-size="9">File Explorer</text>
    <text x="184" y="262" text-anchor="middle" fill="#5c5c72" font-size="9">Search</text>
    <text x="184" y="276" text-anchor="middle" fill="#5c5c72" font-size="9">Bookmarks</text>
    <text x="184" y="290" text-anchor="middle" fill="#5c5c72" font-size="9">Tags View</text>
    <text x="184" y="304" text-anchor="middle" fill="#3a3a4a" font-size="7">(switched via ribbon icons)</text>
    <text x="184" y="322" text-anchor="middle" fill="#3a3a4a" font-size="8">260px default</text>
    <text x="184" y="334" text-anchor="middle" fill="#3a3a4a" font-size="8">collapsible</text>

    <!-- Resize handle -->
    <rect x="284" y="70" width="4" height="412" fill="#7f6df2" opacity="0.2"/>

    <!-- EDITOR AREA -->
    <rect x="288" y="70" width="556" height="412" fill="#222230" stroke="#5c5c72" stroke-width="1"/>

    <!-- Main editor -->
    <text x="566" y="230" text-anchor="middle" fill="#7f6df2" font-size="16" font-weight="600">EDITOR AREA</text>
    <text x="566" y="252" text-anchor="middle" fill="#5c5c72" font-size="10">CodeMirror 6 — Markdown rendering</text>
    <text x="566" y="268" text-anchor="middle" fill="#5c5c72" font-size="10">Live Preview / Source / Reading modes</text>
    <text x="566" y="284" text-anchor="middle" fill="#5c5c72" font-size="10">Pane splits (horizontal + vertical)</text>
    <text x="566" y="300" text-anchor="middle" fill="#5c5c72" font-size="10">Linked panes, pop-out windows, tab stacks</text>
    <text x="566" y="316" text-anchor="middle" fill="#5c5c72" font-size="10">Pane types: note, canvas, graph, base</text>
    <text x="566" y="342" text-anchor="middle" fill="#3a3a4a" font-size="8">fills remaining space</text>

    <!-- Resize handle -->
    <rect x="844" y="70" width="4" height="412" fill="#7f6df2" opacity="0.2"/>

    <!-- RIGHT SIDEBAR -->
    <rect x="848" y="70" width="312" height="412" fill="#1a1a24" stroke="#5c5c72" stroke-width="1" stroke-dasharray="6,3"/>
    <text x="1004" y="140" text-anchor="middle" fill="#7f6df2" font-size="14" font-weight="600">RIGHT SIDEBAR</text>
    <text x="1004" y="158" text-anchor="middle" fill="#5c5c72" font-size="9">(stacked panels)</text>

    <!-- Stacked panel indicators -->
    <rect x="868" y="178" width="272" height="30" rx="4" fill="#222230" stroke="#3a3a4a" stroke-width="0.5"/>
    <text x="1004" y="198" text-anchor="middle" fill="#a9b1bd" font-size="10">Backlinks</text>
    <rect x="868" y="214" width="272" height="30" rx="4" fill="#222230" stroke="#3a3a4a" stroke-width="0.5"/>
    <text x="1004" y="234" text-anchor="middle" fill="#a9b1bd" font-size="10">Outgoing Links</text>
    <rect x="868" y="250" width="272" height="30" rx="4" fill="#222230" stroke="#3a3a4a" stroke-width="0.5"/>
    <text x="1004" y="270" text-anchor="middle" fill="#a9b1bd" font-size="10">File Properties</text>
    <rect x="868" y="286" width="272" height="30" rx="4" fill="#222230" stroke="#3a3a4a" stroke-width="0.5"/>
    <text x="1004" y="306" text-anchor="middle" fill="#a9b1bd" font-size="10">All Properties</text>
    <rect x="868" y="322" width="272" height="30" rx="4" fill="#222230" stroke="#3a3a4a" stroke-width="0.5"/>
    <text x="1004" y="342" text-anchor="middle" fill="#a9b1bd" font-size="10">Outline</text>

    <text x="1004" y="384" text-anchor="middle" fill="#3a3a4a" font-size="8">280px default</text>
    <text x="1004" y="396" text-anchor="middle" fill="#3a3a4a" font-size="8">collapsible</text>
    <text x="1004" y="414" text-anchor="middle" fill="#3a3a4a" font-size="8">panels: collapse, reorder, drag between sidebars</text>

    <!-- STATUS BAR -->
    <rect x="40" y="482" width="1120" height="28" fill="#1a1a24" stroke="#5c5c72" stroke-width="1"/>
    <rect x="40" y="502" width="1120" height="8" rx="10" fill="#1a1a24"/>
    <text x="600" y="500" text-anchor="middle" fill="#7f6df2" font-size="12" font-weight="600">STATUS BAR</text>
    <!-- Status bar segments -->
    <g font-size="8" fill="#3a3a4a">
      <text x="120" y="500">Word / Char Count</text>
      <text x="280" y="500">Ln:Col</text>
      <text x="380" y="500">Editor Mode</text>
      <text x="500" y="500">Sync Status</text>
      <text x="650" y="500">Plugin Indicators</text>
    </g>

    <!-- ===== LEGEND ===== -->
    <g transform="translate(40, 530)">
      <text x="0" y="0" fill="#dcddde" font-size="11" font-weight="600">Legend</text>
      <rect x="0" y="10" width="30" height="14" rx="2" fill="none" stroke="#5c5c72" stroke-width="1.5"/>
      <text x="38" y="21" fill="#5c5c72" font-size="9">Always visible</text>
      <rect x="160" y="10" width="30" height="14" rx="2" fill="none" stroke="#5c5c72" stroke-width="1.5" stroke-dasharray="4,2"/>
      <text x="198" y="21" fill="#5c5c72" font-size="9">Collapsible</text>
      <rect x="310" y="12" width="30" height="10" rx="2" fill="#7f6df2" opacity="0.3"/>
      <text x="348" y="21" fill="#5c5c72" font-size="9">Resize handle</text>
    </g>

    <!-- Key differences from Rustsidian callout -->
    <g transform="translate(540, 524)">
      <rect x="0" y="0" width="580" height="36" rx="6" fill="#7f6df2" opacity="0.06" stroke="#7f6df2" stroke-width="0.5" stroke-opacity="0.3"/>
      <text x="16" y="16" fill="#7f6df2" font-size="9" font-weight="600">vs Rustsidian:</text>
      <text x="16" y="30" fill="#5c5c72" font-size="9">No terminal panel, no AI panel, no MDX support, Electron (not Tauri), Markdown only (not MDX)</text>
    </g>
  </g>
</svg>